<svg width="660" height="503" viewBox="0 0 660 503" fill="none" xmlns="http://www.w3.org/2000/svg">
<path d="M567.451 499C573.289 499 578.245 496.867 581.674 492.813C585.03 488.845 586.573 483.457 586.573 477.503V445.693H589.037C610.238 445.693 627.136 439.836 638.721 428.151C650.302 416.472 656 399.551 656 378.601V273.086C656 252.139 650.301 235.22 638.721 223.541C627.136 211.857 610.238 206 589.037 206H411.963C390.823 206 373.93 211.897 362.332 223.592C350.739 235.282 345 252.197 345 273.086V378.601C345 399.493 350.737 416.41 362.329 428.1C373.927 439.797 390.82 445.693 411.963 445.693H498.703L545.116 486.95C545.119 486.953 545.123 486.956 545.126 486.959C553.205 494.248 558.968 499 567.451 499Z" fill="#FAFAFA" stroke="black" stroke-width="8"/>
<path d="M490.637 274.745L469.891 392.407" stroke="#1E1E1E" stroke-width="14" stroke-linecap="round"/>
<path d="M538.012 274.702L517.265 392.364" stroke="#1E1E1E" stroke-width="14" stroke-linecap="round"/>
<path d="M545.138 354.05H451" stroke="#1E1E1E" stroke-width="14" stroke-linecap="round"/>
<path d="M556 307.585L456.431 307.585" stroke="#1E1E1E" stroke-width="14" stroke-linecap="round"/>
<path d="M125.761 406.499C118.074 406.499 111.663 403.71 107.24 398.49C102.889 393.356 100.815 386.295 100.815 378.311V332.805H95.8613C66.7738 332.805 43.814 324.789 28.1374 309.009C12.4653 293.234 4.64755 270.28 4.64755 241.583V95.715C4.64755 67.0224 12.4654 44.0697 28.1375 28.2959C43.8141 12.5175 66.7738 4.50122 95.8613 4.50122H341.139C370.138 4.50122 393.094 12.5695 408.789 28.3658C424.481 44.1578 432.353 67.106 432.353 95.715V241.583C432.353 270.196 424.483 293.146 408.793 308.939C393.098 324.737 370.142 332.805 341.139 332.805H220.401L155.665 390.237C155.661 390.24 155.657 390.244 155.653 390.248C144.397 400.382 136.835 406.499 125.761 406.499Z" fill="#FAFAFA" stroke="black" stroke-width="8"/>
<path d="M197.421 69.4629L161.085 275.533" stroke="#1E1E1E" stroke-width="20" stroke-linecap="round"/>
<path d="M280.39 69.3879L244.054 275.458" stroke="#1E1E1E" stroke-width="20" stroke-linecap="round"/>
<path d="M292.871 208.356L128 208.356" stroke="#1E1E1E" stroke-width="20" stroke-linecap="round"/>
<path d="M311.895 126.978L137.512 126.978" stroke="#1E1E1E" stroke-width="20" stroke-linecap="round"/>
</svg>
