<svg width="349" height="648" viewBox="0 0 349 648" fill="none" xmlns="http://www.w3.org/2000/svg">
<path d="M348.213 648L348.213 485.003L307.676 642.896L328.264 481.176L268.257 632.689L308.794 474.955L230.274 617.697L290.44 466.184L194.526 598.08L273.205 455.338L161.49 574.157L257.405 442.26L131.806 546.247L243.52 427.428L105.792 514.828L231.551 411.001L83.9282 480.378L221.656 393.138L66.5326 443.536L214.155 374.159L53.9248 404.621L209.048 354.383L46.2644 364.59L206.495 334.128L43.7109 323.92L206.495 313.713L46.2644 283.251L209.048 293.618L53.9248 243.219L214.155 273.841L66.5326 204.464L221.656 254.862L83.9282 167.622L231.551 236.999L105.792 133.173L243.52 220.413L131.806 101.753L257.405 205.58L161.49 73.843L273.205 192.662L194.526 49.7603L290.44 181.657L230.274 30.1432L308.794 173.045L268.257 15.1514L328.264 166.665L307.676 5.10362L348.213 162.837V0" stroke="black" stroke-miterlimit="10"/>
<path d="M97.7147 470.096L143.422 495L97.7147 520.104L72.7109 565.71L47.7072 520.104L2.00026 495L47.7072 470.096L72.7109 424.289L97.7147 470.096Z" fill="#B9FF66" stroke="black" stroke-miterlimit="10"/>
<path d="M219.102 243.565L300.777 288.066L219.102 332.925L174.422 414.422L129.742 332.925L48.0666 288.066L129.742 243.565L174.422 161.711L219.102 243.565Z" fill="#191A23" stroke="black" stroke-miterlimit="10"/>
</svg>
