<svg xmlns="http://www.w3.org/2000/svg" viewBox="0 0 1500 1500" height="1500" width="1500"><g transform="matrix(7.5,0,0,7.5,0,0)"><g fill="#020202"><path d="M153.77 47a1.41 1.41 0 0 0 2.28.27s.34.54 1.86.78a2.72 2.72 0 0 0 2.6-1.18c.1-.19-1.15-.39-3-2.13a7.66 7.66 0 0 1-2.23-3.33c-2.67.76-1 3.31-1 3.31a1.49 1.49 0 0 0-.51 2.28z"></path><path d="M172.71 40.71c-.42.37-.73.81-1.15 1.15-.92.78-1.14.31-3.65.12a6.53 6.53 0 0 0-.12-6c-.42-1-3.75-2.21-7.5-.94-.7-3.61.12-2.85 1.74-5.31.07-.1-.1-.22-.17-.15-2.41 2.49-2.69 2.41-1.86 5.54a10.87 10.87 0 0 0-1.52.71 7.8 7.8 0 0 0-1-2.25c-.13-.25-.1-.08-3.68 1.37a.1.1 0 0 0 0 .19 11.92 11.92 0 0 0 3.38-1.22c.39.66.69 1.35 1.06 2a2.82 2.82 0 0 0-.4.24 6.38 6.38 0 0 0-1.84 1.71c-1.57-1-2.18-.81-4.41.68-.13.08-.05.3.09.25 2.34-.86 2.31-1.53 4.17-.64a3.88 3.88 0 0 0 1.1 4.9c.54.15 7.11-5.22 7.4-5.49s1.05-.61 1.13-.19-7.45 6.81-7.45 6.81c-.32.29 1.05 1.47 2.62 2.11a3.26 3.26 0 0 0 2.72-.1c1 2-.31 2.15-1.69 3.92-.1.15 0 .32.2.19a16.49 16.49 0 0 0 2.32-2.42c.25-.56-.12-1.28-.54-1.86a10.72 10.72 0 0 0 1.79-1.28 20.57 20.57 0 0 0 1.91 1.94 19.42 19.42 0 0 0-1.2 1.66.16.16 0 0 0 .25.18 14.3 14.3 0 0 0 1.42-1.79c.14-.22 0-.13-2.18-2.18.39-.37.81-.79 1.27-1.3a7.6 7.6 0 0 0 .81-1.08c3.78.71 3.28 1.27 5.17-1.4.1-.05-.09-.17-.19-.07zM141.1 14.17a5.27 5.27 0 0 1 2.72.64c1-1.67-1-2.18-1-2.18a1 1 0 0 0-.86-1.37 1 1 0 0 0-1.3 1s-.44-.12-1.32.49a1.92 1.92 0 0 0-.76 1.84 24 24 0 0 1 2.52-.42z"></path><path d="M135.08 17.29a8.34 8.34 0 0 0 1.93.36 9 9 0 0 0-.07 1.69 1.68 1.68 0 0 0-1.67.47 14.73 14.73 0 0 0-.9 3.21c0 .12.17.24.24.1.29-.69.93-3.19 1.47-3.36a2.59 2.59 0 0 1 .88-.1 4.37 4.37 0 0 0 3.04 3.87c.61.27 2.45-.46 3.74-2.32 1.83 1.82.35 1.93.64 3.25.05.18.27.13.3 0C144.85 23 146 22.61 144 21a7.69 7.69 0 0 0 .46-.86c.29.12 1.27.45 1.5.22a7.66 7.66 0 0 0 .83-1.42c0-.12-.1-.27-.2-.14-.81.95-.56 1.67-2 1.15a6.21 6.21 0 0 0 .59-2.53c1.48 0 1.75-1.43 2.52-2.5.07-.09-.07-.24-.17-.17-1 .63-.83 2.08-2.38 2.35a2.67 2.67 0 0 0-2.94-2.32c-.34.19-1.1 6-1.12 6.32s-.25.81-.47.64.54-7 .54-7c0-.38-2.5-.22-3.33.91a1.65 1.65 0 0 1-.91-1.72c.07-.8.2-1.59.22-2.42 0-.1-.15-.12-.2 0a13.92 13.92 0 0 0-.44 3.36 1.74 1.74 0 0 0 1.18 1 4 4 0 0 0-.51 1.52 13.47 13.47 0 0 0-1.43-.32c-.73-.2-.78-.73-1.12-1.3a.15.15 0 0 0-.27.08 1.57 1.57 0 0 0 .73 1.44zm36.26-.52a.64.64 0 0 0 1 .15s.15.24.83.37a1.31 1.31 0 0 0 1.2-.49c0-.1-.49-.2-1.35-1a3.8 3.8 0 0 1-1-1.54c-1.22.32-.51 1.49-.51 1.49a.67.67 0 0 0-.17 1.02z"></path><path d="M170.19 13.44a3.85 3.85 0 0 1 2.35-.69 1.78 1.78 0 0 0 .39 2.31c.49.14 3.86-3.16 3.95-2.48a42.42 42.42 0 0 1-3.46 3c-.18.15 1.12 1.4 2.23 1.05.12.27.27.52.42.79a5.57 5.57 0 0 0-.79.88c-.07.1.08.22.15.15s1.13-.91 1-1.08-.35-.54-.54-.81a3.59 3.59 0 0 0 .93-.61c1.17.82.32 1.35.07 1.81s1.25-.17.88-1.18a1.31 1.31 0 0 0-.78-.75 8.56 8.56 0 0 0 .83-.91c1.09.79 2-.51 2.6-.76 0-.07 0-.27-.12-.27-1 0-1.17 1.32-2.4.76a3 3 0 0 0 0-2.67c-.17-.44-1.52-1-3.11-.59-.34-.85-.22-.77 1.34-2.57.08-.1 0-.25-.12-.17-2.37 1.73-1.91 1.92-1.47 2.79-.22.07-.42.15-.64.24-.3-1.2-1.3-1-2.42-.58a.1.1 0 0 0 0 .19c.68.17 1.71-.68 2.18.54a4.13 4.13 0 0 0-.86.61c-.86-.39-2.11.3-2.7.86-.1.07-.01.19.09.14zm6.96 59.78a1.87 1.87 0 0 0-1.92-.56 15.71 15.71 0 0 1 .62 2.5 5.44 5.44 0 0 1-.37 2.77c1.74.81 2.06-1.28 2.06-1.28a1 1 0 0 0 1.27-1 1 1 0 0 0-1.05-1.17s.07-.42-.61-1.26z"></path><path d="M174 69a.12.12 0 0 0-.12-.2c-.51.18-1.27-.22-1.64.35a11.24 11.24 0 0 0-.37 2.33c-.44 0-1 0-1.52.07-.1-.8-.2-1.75-.61-2.06a7.58 7.58 0 0 0-3.23 0 .11.11 0 0 0 0 .22c2.51 0 3.35-.77 3.6 1.94a4.36 4.36 0 0 0-3.7 3.45c-.22.64.76 2.53 2.89 3.63-1.73 2.82-3.21.88-4.55 1.37-.15 0-.1.25.07.25 1.26-.2 3.23 1.56 4.75-1.47a6.91 6.91 0 0 0 1.45.51c-.3 1.68-.88 2.1-.56 2.25a4.94 4.94 0 0 0 1.29.62.12.12 0 0 0 .1-.2 4.34 4.34 0 0 0-1.05-.66 6.13 6.13 0 0 0 .51-1.94 5.78 5.78 0 0 0 1.62.13c.25 1.2 1.37 2.45 2.7 2a.14.14 0 0 0-.05-.24c-1.27-.28-2.11-.51-2.48-1.87a2.68 2.68 0 0 0 2.23-3.21c-.22-.32-6.1-.51-6.39-.51s-.84-.17-.69-.42 7-.14 7-.14c.38 0 0-2.64-1.47-3.34.83-1.19 1.51-1.3 2.89-1.22a.11.11 0 0 0 .05-.2c-1.32-.76-2.43.22-3.14 1.32a4.7 4.7 0 0 0-1.44-.26c.05-.27.14-1.84.46-2.14s1.07.07 1.4-.36zm-25.2 15.1c.1.05.17-.12.07-.17-5.49-2.6-9.8-7.77-13.6-12.35-11.57-13.91-12.44-18.4-18-30.16 0-.05-.15 0-.1.07 4.07 9 5.71 14.15 11.54 22.15a113.86 113.86 0 0 0 12.6 15.1c2.22 2.1 4.62 4.26 7.49 5.36zm-21.91-35.18c.74-.22 3-1 3.33-1 .54 0 .69 3.36 1.33 4.58a.11.11 0 0 0 .22 0c.27-.71 1.2-3.94 1.84-4.06.46-.1 3.6 1.25 4.43 1.64.12.05.29-.08.2-.2a12.35 12.35 0 0 0-2.67-3.18c-.13-.1-.3.07-.2.19a20.1 20.1 0 0 1 2.35 2.72 32.68 32.68 0 0 0-4.43-1.54.13.13 0 0 0-.17.1 30.5 30.5 0 0 1-1.43 3.84c-.39 0-.66-4-.68-4.41a.14.14 0 0 0-.17-.12c-1.13.32-2.28.64-3.41 1a24.49 24.49 0 0 0 2.87-2.89.13.13 0 0 0 0-.17l-1.17-2.72c.54.71 1.07 1.44 1.61 2.15.05.08.2 0 .13-.07l-2.21-3.09a.13.13 0 0 0-.22.13c.44 1 1.81 3.06 1.23 4.06a13.86 13.86 0 0 1-2.92 2.8c-.08.12.02.32.14.24zm58-26.46c-5 4-9.88 8.18-15 12.08 0 0 0 .12.05.09A124.77 124.77 0 0 0 185 22.6a.1.1 0 0 0-.11-.14zm9.68 1.88c-2.6 2.21-5 4.53-7.72 6.64-.07.05 0 .2.1.12a60.3 60.3 0 0 0 7.74-6.64.09.09 0 0 0-.12-.12zM188 5.16c.08 0 0-.2-.07-.15A24.79 24.79 0 0 0 182.49 9c-.05.08 0 .15.07.1A60.94 60.94 0 0 1 188 5.16zm-18.94 51.48c-9.66 5.25-19.38 14.49-17.67 13.36a164 164 0 0 1 17.79-13.16c.08-.11-.02-.28-.12-.2zm-17.42 14.5c-1.43-.35 4.3 2 9.8 2.38.1 0 .12-.12.05-.15a72.31 72.31 0 0 1-9.85-2.23zm-43.15-39.67a21.81 21.81 0 0 0 3.51-5.61c0-.12-.12-.19-.2-.1-1.2 1.84-2.13 3.83-3.38 5.64-.05.05.02.12.07.07zm-8.99 1.45a74.88 74.88 0 0 0-2.28-10.39c0-.1-.15-.05-.12 0 .66 3.48 1.54 6.93 2.28 10.39.02.14.14.08.12 0zM94 37.25c.07.08.17 0 .09-.09a36.19 36.19 0 0 0-5.39-5c-.1-.07-.19.08-.12.15C90.36 34 92.3 35.54 94 37.25zM81.29 44a49 49 0 0 0 8.58 1.22.07.07 0 1 0 0-.14c-2.87-.37-5.69-1-8.55-1.33-.15-.05-.15.17-.03.25zM68 101.62c-5.83 4.88-11.36 10.15-17 15.19 0 0 0 .1.07.08 5.68-5 11.56-9.93 17.08-15.17-.01-.05-.15-.15-.15-.1zm44.51-33.12c2.55 2.42 5.78 8.57 5.81 8.6a26.37 26.37 0 0 1-17.72 2.1.07.07 0 1 0 0 .13 25.8 25.8 0 0 0 17.91-2c.54 3.65.83 7.25 1.1 11 0 .1.17.1.17 0a45.57 45.57 0 0 0-1.12-11c.26-.14 4-2.25 4.72-3.77.08-.17-.12-.32-.22-.17-.93 1.61-4.5 3.6-4.55 3.65s-3.51-6.15-6-8.53c-.08-.14-.13-.06-.1-.01zm35.72 90.78c-5.75-2.18-18.39-8.73-18.5-8.73-.4 0-9.59 3.92-22.66 8.68-.1 0-.15.09-.07.14 5.66 3.51 11.46 7.18 17.59 10.71.59.34.49.37 1 .1 1.11-.52 18.4-8.41 22.64-10.54a.2.2 0 0 0 0-.36zm-41 0c13-3.88 21.08-9 23.06-8.09.78.37 9.28 4.86 10.19 5.27-3.26 1.5-17.93 7.84-21.9 9.63-3.79-2.36-7.49-4.78-11.34-6.79zM125 170c-.29-.05-4.46-2.67-6.17-3.75 4.06-1.59 8.13-3.28 12.17-5.09a48.81 48.81 0 0 0 6 3.38c-.43.22-11.43 5.59-12 5.46zm12.3-5.61c-1.93-1.25-4.09-2.23-6.1-3.33q4.81-2.18 9.61-4.49c2.22 1 4.53 2 6.88 2.87-3.47 1.77-6.93 3.39-10.41 4.98z"></path><path d="M146.58 130.64c1.28-6.75 3-21.58-1.21-26.32-5-5.66-12.47-8.2-13.65-8.57 1-.89 1.88-1.86 2.82-2.78 0-.1 0-.24-.13-.29a23.43 23.43 0 0 0-9.77-2.84c.18-4.66.12-13.87-.74-19 1.46-.34 2.91-.77 4.35-1.19 11.72 16.6 21.32 19 22.12 19.1s2.81-1.37 2.81-1.47c.22-1.71-1-9.88-1.74-12.42.15-.2.3-.39.44-.59a.16.16 0 0 0-.26-.15c-.57.61-1.06 1.25-1.57 1.91v-5.11c0-.31-.17-.17-3.36-.1a26.74 26.74 0 0 0 2.55-1.61c.28-.28-.07-.1-1-2.85 1.32 1 2.85 2.47 2.45 1.87-.61-.56-1.23-1.11-1.83-1.68A114.71 114.71 0 0 0 144.17 54c-1.31-3.08-4-8.16-5.73-11.23 10.08-7.26 28.13-21 30.28-22.83a.13.13 0 0 0-.15-.2c-2.27 1.6-20.24 15.47-30.23 22.84-.8-1.44-1.34-2.4-1.35-2.4-.7-.64-1.43-1.23-2.11-1.87A109.84 109.84 0 0 0 139.09 26c0-.15-.19-.27-.27-.1-.79 1.83-2.64 7.21-4.35 12.07-.25-.26-.5-.52-.74-.8-3-3.59-2.39-5.95-2.77-5.76 0-.71-7.82-2.5-13.84 0h-.05a2.85 2.85 0 0 0-1.28.83 7 7 0 0 1 .66 4.85 5.35 5.35 0 0 1-2.42 3.6 5.22 5.22 0 0 0-1 .35s1.58 6.11 9.24 19.21l-2-.79a15.93 15.93 0 0 0-2.16-2.2 24.56 24.56 0 0 0-6.1 1.05 4.08 4.08 0 0 1 .29 1.6 7.71 7.71 0 0 1-.83-2.55c.12 0 2.94-1.25 2.74-2.45 0-.27-3.21-10.52-4.63-15.44-.24-.48-4-.62-7.08.59-1.37.53-4.92 2.25-5.88 3.35-1.24 1.41-.51 2.82 1.26 8.41-.1 0-91.67 10.76-91.57 10.73a2.88 2.88 0 0 0-1.08 2.52c0 2 20.56 81.77 21.27 82.14a6 6 0 0 0 1.76.48c.07.57.54 3.46 1.25 4.07S88.25 195.12 89.26 195s92.84-43.34 93.62-44.06a5.16 5.16 0 0 0 .93-2.79c-11.32-5.82-16.13-7.35-37.23-17.51zm-14-15.54c0 .32.12 4.7.57 9-5.63-2.77-10.27-5.09-11.84-6-.3-1.78-.71-3.53-1.12-5.28 4.74 1.12 12.38 1.72 12.41 2.28zm11.27 33.62c1.08 2 4.42.63 4.07 2-.05.22-.81.64-1.05.74-3.09 1.59-4.36-.92-6.1-.71-1.19.12-3.22 2.24-3.88.46a22.45 22.45 0 0 0-.82-9.94.16.16 0 0 0-.06-.2c-.1-.28-.19-.57-.29-.86.07 0 6.29-.29 9.33-.51-1.48 7.73-1.67 8.14-1.18 9.02zM135 140a.92.92 0 0 1-1.1-.44c0-.39.51-4.58 1.15-4.92.29-.15 10.19-.35 10.66-.62.47 0 .66.24.93.88a28 28 0 0 1 1 3.58.48.48 0 0 1-.07.73c-.34.02-11.37.93-12.57.79zm11.68-5.74c1.06.44 2.17.81 3.24 1.18.87.32-1.55 1.11-2.37 1.61zm-.85-.33h.09zm-12.12-6c-4.48-2.38-11.43-5.94-12-6.31s-.63-.67-1.37-.47c-4.69 1.33-9.3 2.93-13.91 4.52.94-1.11 1.85-2.29 2.73-3.5 6.1-2 10.47-3.34 12-3.81 2.22 1.31 6.64 3.56 12 6.19.18 1.15.33 2.31.53 3.38zm-41.64 17.94c-9.53 3.62-17.29 6.61-19 7.37-.67-1.08-1.29-2.41-.89-3.57s1.6-1.5 6.81-4.21h.05c2.35 3.4.86 2.8 3.35-1.23 1-.35 2.37-.82 4-1.39 2.86 1.63 5.16 2.72 5.68 3.03zm-5.31-3.13c5.51-1.94 13.69-4.85 21.22-7.57 1.33.7 3.84 2.1 5.07 2.79-6.74 2.55-14 5.32-20.49 7.77-1.93-.98-3.87-1.96-5.8-2.99zM82.55 144c1.31-2.05 1.31-1.37.63-2.28l.67-.32c.7.43 1.41.85 2.12 1.25-1.35.49-2.51.94-3.42 1.35zm.58-1.62s-.5.83-1 1.8h-.1a.09.09 0 0 0 0 .15c-.64 1.13-1.34 2.39-1.51 2.82a80.64 80.64 0 0 0-8.65-11.05c-.34-.76 3.19-2.45 4-2.4s7.24 8.62 7.26 8.64zm-4.34 2.85c-5.15 2.64-7.16 3.23-7 5.49.08 1.77 2.79 4.92.66 4.45-1.62-.34-3.06-2.3-3.53-3.77-.29-1 .07-3-1-3.55a6.81 6.81 0 0 0-1.24-.3c-.84-.29-.79-1.39-.4-2.1.72-1.3 2.69-1.48 6.45-7.89a70.79 70.79 0 0 1 6.06 7.63zm-8 9.36a44.94 44.94 0 0 0-5 2c-1.74-1.1-5.88-3.72-6.25-3.94a79 79 0 0 0 8.79-3.65 7.08 7.08 0 0 0 2.49 5.55zm.12.09c1.72 1.33 3.74 1.13 2.2-1.28 2.77-1 10.42-3.92 19.28-7.29 2 1.08 4 2.2 6 3.33-14 5.29-26.22 9.95-27.44 10.39-1.57-1-3.14-2.06-4.73-3.06.24-.14 4.67-1.86 4.72-2.13zm22-8.72 20.44-7.79 5.93 3.43-20.41 7.72c-1.87-1.24-3.93-2.32-5.94-3.4zM108.32 135c7.47-2.69 14.26-5.19 17.08-6.32.14.07 3.58 1.84 5.17 2.57-4.27 1.67-10.39 4-17.08 6.52-.8-.38-4.49-2.33-5.17-2.77zm-.64-.32c-1.37-.76-2.74-1.49-4.09-2.25 7.23-2.55 14.29-5.1 17-6.25 1.47.79 3 1.57 4.45 2.33-2.88 1.04-9.79 3.49-17.36 6.21zm-.36.08c-7.53 2.69-15.64 5.66-21 7.69-.76-.4-1.51-.82-2.25-1.24 1.82-.9 5.55-2.82 9.78-5.46 2.92-1 6.17-2.12 9.4-3.25 1.35.8 2.69 1.56 4.07 2.3zm-12.54.41c2-1.25 4-2.63 6-4.14.71.42 1.43.85 2.15 1.25zm21-23.77c.54 1.6 1.17 3.5 1.29 4.2s.12.76-.51 1c-.07 0-1.76.51-4.62 1.32 1.51-2.28 2.81-4.57 3.86-6.48zm1.73 5.2a.15.15 0 0 0 .1-.15c-.59-1.74-1.16-3.48-1.74-5.22a50.73 50.73 0 0 1 2.72-4.87c.57-.06.3.34-2.06 5.19 0 0 .55.52 3.28 1.18.41 2 1 4.34 1 4.53.14.71 0 .71-.64 1-.31.15-4.42 1.48-10.75 3.51.8-1.11 1.56-2.25 2.27-3.38 2.88-.84 4.92-1.46 5.84-1.75zM134 93.1c0 .31-2.6 2.56-2.7 2.77a6.57 6.57 0 0 0-2.47 3c-.76 2 0 1.37-1.91.34s-8.67-3-9.36-2.6-5.19 7.8-7.1 13.87-1.3 5.81-3 5.54c-2.7-.42-7.76.52-14.43-9 0 0 4.58-8.36 7.69-12.11 5.06 8.46 18.9 2.91 23.89-4.77 4.85.33 9.39 2.27 9.39 2.96zm-16.74-61.6a18.69 18.69 0 0 1 13.65 0 6.53 6.53 0 0 0 .27 1.59c-1.71-.68-9.87-.39-11.27.64a.06.06 0 0 0-.12 0c.47 3-.17 5.49-2.55 7.5-.07.05 0 .14.1.1a6.75 6.75 0 0 0 2.59-7.58c1.89-.47 9.39-.56 11.3-.56a11.27 11.27 0 0 0 2 3.6c.35.46.74.94 1.17 1.41-1.19 3.39-2.3 6.49-2.91 7.87 0 0 .07.1.1 0 .66-1.25 1.9-4.2 3.19-7.5a7.92 7.92 0 0 0 2.2 1.67c.43.78.86 1.56 1.28 2.34-2.26 1.67-4.11 3-5.25 3.76-.12.05-.05.17.05.12 1.16-.75 3-2.05 5.3-3.69 1.94 3.56 3.78 7.15 5.41 10.92 1.75 4.1 3.17 8.32 4.84 12.43-1.95-1.87.33 2 .18 2.69s-2.28 1.59-2.94 1.93a.18.18 0 0 0 .1.34c4.89-.16 3.79-.36 3.79 5.32a.18.18 0 0 0 .32.12c.43-.52.85-1 1.26-1.57.49 2.83 1.78 12.16 1.78 12.16-5.24 1.49-14.09-8-21.44-16.34-5.9-6.74-16.34-28.29-17.37-29.9 4.32-.8 4.63-7.63 2.97-9.37zm5.35 29.32c1.79 3 3.43 5.7 5.47 8.61-1.41.4-2.81.79-4.2 1.27-.52-3.7-1.23-7.79-3.36-10.88.68.35 1.38.69 2.09 1zm-4.44-3.3c6.63 5.75 6.46 23 6.15 32.39a.1.1 0 0 0 0 .07c-6.25 8.46-17.89 11.52-22.44 6.35-1.77-2-1.86-3.58-7.25-16.93.12-.05.24-.07.34-.12 0 .16 1.81 1.41 3.26-1.18v-.07c1.72-3.12 1.41-8.15.83-11.67-.27-1.59-.56-5.14-3.18-5.63a34.19 34.19 0 0 0 5.09-2c1.07-.28 1.1 2.56 5.15 3.94 5 1.72 7.57-.92 6.25-4.21a22.14 22.14 0 0 1 5.8-.94zm-40.31 50.06c1.78-.49 2.2 1.09 1.62 2a1.35 1.35 0 0 1-2.52-.69c.38.23 1.04-.58.9-1.31zm-1 1.15c-2-1.82-4.09-3.68-6.25-5.37a.1.1 0 0 0 0-.07c.29-1.82-.91-5-3.19-4.56s0 0 0-.05 0-.1-.05-.1c-.89-1.64-1.72-3.3-2.65-4.92a.15.15 0 0 0 0-.13c.11-.34.29-.54.81-.46 2 1.43 4 2.89 5.87 4.4.2 1.46.84 1.11 1.38 1.65a4.27 4.27 0 0 0 1.12.9 53.79 53.79 0 0 0 3.58 7.55.15.15 0 0 0 .1.2c.23.37-.24 1.06-.67.96zm-6.54-5.39c-2 1.81-13 13.25-15.64 16.68-.1-.1.61-.17-11.46 2.87 1.64-3.43 3.28-6.86 4.8-10.32.36 0 3.9-3.7 19.18-13.79 0 .22 1.62 0 2.53 1.59a6.58 6.58 0 0 1 .64 2.97zm-5.76-10c-1.81.87-2.51-1.52-1-2.35s2.9.56 2 1.59a.15.15 0 0 0-.13 0 .84.84 0 0 0-.82.81zm9.58 2.23s6.56-4.34 6.61-5.1c0-.17-.17-.34-.46-.49.6-.49 1.19-1 1.77-1.55a2.41 2.41 0 0 0 1.41 2.61.07.07 0 0 0-.07 0A69.06 69.06 0 0 1 74.33 99c-.12-1.16-.84-2.93-.14-3.38zm8.06-7.26c.57-.54 1.12-1.09 1.65-1.67 2.74-.35 3.61 2.37 2.2 3.73a2.29 2.29 0 0 1-3.8-2.01zm-2.16 1.57c-2 0-5.24-2.74-5.49-3A32.54 32.54 0 0 1 79 77.66c1.19 1 3.71-.67 4.56-1.47.25.39 3.5 5.2 3.67 5.34-1.77 3.41-4.37 5.81-7.14 8.4zM84 75.38c-2.79 3.2-6.22 3.61-5.24-1s5-6.65 6.34-4.12-1.1 5.02-1.1 5.12zm2.82 5.22c-1.08-1.5-2-3.06-3.19-4.51.17-.17.34-.34.52-.54.9 1.13 3.62 4.49 3.6 5 0 .27-.25.74-.44.71a2.75 2.75 0 0 1-.5-.66zm-2.5-5.22c1.82-2.2 1.8-4.44.63-5.83.32 0 4.84-5.17 12.11-8 2.06 1.44 3.25 12 1 16.39-.07 0-7.86 2.59-10 3.13.02-1.33-3.06-4.88-3.75-5.69zm9.11-12.45a2.12 2.12 0 0 1 3.31-1.57c-1.14.47-2.24 1.01-3.32 1.57zm4.46 15.32c-.59 1-1.37 1.47-2.52.88zm14-23.16a3.71 3.71 0 0 1-.73 1.25s.11 2.7 1.15 4c-.58 4.32-8.13 2.74-10.66-2.1-.14-.42-1.69 1.23-6.1 2.42a2.36 2.36 0 0 0-2.3 2.36 31.79 31.79 0 0 0-8.35 6.38 2.5 2.5 0 0 0-2.58-.34c-3.62 1.73-4.68 7-3.45 8.43a32.36 32.36 0 0 0-4.29 9.33c-.69-.78-.69-1.12-1-.76s-2.42 7.82-2.15 11a60.66 60.66 0 0 0-5.67-4.29 1.19 1.19 0 0 0 .13-1.59c-1.21-1.55-4.21.12-3.16 2a1.33 1.33 0 0 0 1.88.49c.81 1.67 1.69 3.31 2.55 4.95-9.33 5.78-19.33 13.71-19.23 13.9-1.74 3.47-3.39 7-5 10.56-.15.39-.62.45 11.81-2.77.08 0 .1 0 .1-.1 2.62-2.79 5.12-5.71 7.77-8.48s5.49-5.36 8-8.23c2 1.89 4.12 3.67 6.2 5.41-.71 1.15 1.64 2.51 2.82 1.08s-.35-3.6-1.94-2.67c-1.29-2.42-2.28-5-3.47-7.44.16-.13.14-.5.13-.69 3.81-2.39 9.5-7.76 9.3-8.06a2.39 2.39 0 0 0 2.72-.59c1.53-1.7 0-4.6-2.12-4.25a20.45 20.45 0 0 0 3.22-4.7.51.51 0 0 0 .66-.36s4.31-1.06 6.42-1.77c1.69 4.53 5.71 14.7 6 15.22-3.67 3.94-7.84 12.35-7.79 12.42a26.75 26.75 0 0 0 1.81 2.39 29.56 29.56 0 0 0-3.43 6.26c-1.56 3.88-2.25 8.1-4.55 9.34-24.27 6.76-54.46 15.12-54.67 15-.51-.26-16.34-65.83-20-74.21-.28-.62 86.58-11.1 86.9-11.19 2.4 7.42-.33 2.84 7.88-.06a13.54 13.54 0 0 1 5.53-.81c.06.12.06.46-.31 1.27zM97.32 43.36c1.07-1 6.12-4 10-3.85 2 0 2-.17 2.62 2.35-4.81-1-9.78 1.59-13.09 4.93-.36-1.25-.66-2.43.47-3.43zM110 42.13c.25.81.81 2.79.86 3-1.05-.79-3.7 0-4.93.44-3.11 1.05-3.57 1.61-3.4 2.15s.59 1.23 1.1 1.06 3.11-1.69 4.41-1.52c0 0 1.3 4.48 1.67 4.6s1.34.13 1.25-.68-1.6-4.34-1.25-4.41 1.17 0 1.61-.08c.71 2.4 1.42 4.81 2.18 7.18-1.84-1-8.69-.14-13.23 4.78-1-3.9-3.4-11.66-3.4-11.69 3.66-3.46 8.04-5.64 13.13-4.83zM28.25 147.54c-.76-3-20.54-81.37-21.64-84.8C17.3 62.23 98 52.08 98 52c.26.82.51 1.61.77 2.41-22.9 2.71-80.89 10.04-87.19 10.83-.12 0-.22.09-.17.24 6.08 19.87 18.6 70.08 20.1 75a.18.18 0 0 0 .19.12c12.22-2.67 34.44-8.86 53.29-14.31a56.53 56.53 0 0 0-4.94 4.89c-22.9 7.26-47.83 15.13-51.8 16.36zm62 42.9c-1.67.35-59.2-40.82-61.87-42.73 11.76-3.55 32.4-10.09 51.29-16.11a13.76 13.76 0 0 0-2.26 3c-.49-.49-.71-1.32-1.47-1.42s-4.78 2.55-4.73 2.62c.49.52 1.42 1.57 1.42 1.6a36.34 36.34 0 0 1-4.14 5.66c-.91.93-2.35 1.66-2.57 3.06a1.61 1.61 0 0 0 .63 1.79c.1.05 1.44.13 1.76 1-3 1.28-6 2.41-9.06 3.49-2.06-1.33-4.11-2.65-6.2-4 1-.37 11.15-3.53 15.05-5.07a.08.08 0 0 0 0-.15c-4.09 1.06-14.21 4.71-15.27 5.05-1.49-1-3-1.91-4.51-2.87-.07 0-.14.08-.07.13 1.45 1 2.89 1.88 4.34 2.81a74 74 0 0 0-7 2.58c-.12 0 0 .24.1.19l7.2-2.6c2 1.33 4.07 2.65 6.13 4-1.35.47-2.7.94-4.07 1.38-.07 0-.05.14 0 .12 1.47-.37 3-.81 4.39-1.28l6.15 4-2.13 1c-.07 0 0 .17 0 .12.78-.29 1.57-.59 2.35-.91 1.57 1 3.14 2.06 4.73 3l-5.39 1.91c-.07 0 0 .18 0 .15 1.88-.59 3.77-1.22 5.63-1.86l2.11 1.3c.12.07.25-.13.12-.2-.59-.42-1.2-.83-1.81-1.22C74 159 86 154.45 98.67 149.6L101 151a.12.12 0 0 0 .12-.2c-.66-.46-1.35-.9-2-1.34 7.08-2.7 14.33-5.49 20.31-7.8 1 .57 2 1.13 2.91 1.72.13.07.25-.12.13-.2-.84-.58-1.69-1.15-2.58-1.69l12.75-4.92c.05 0 0-.08 0 0-3.6 1.35-8.06 3-12.94 4.85-1.93-1.2-3.94-2.3-6-3.41 8.77-3.35 15.8-6.05 17-6.56a38 38 0 0 0 3.8 1.57c.22.09.27-.05.2-.1-1.08-.59-2.21-1.1-3.33-1.64.46-.2.93-.4 1.39-.62.08 0 0-.17-.05-.14-.54.19-1.07.41-1.59.61-1.79-.81-5.41-2.48-5.44-2.5.66-.27 1.32-.54 2-.83.07 0 0-.15-.05-.13-.76.25-1.52.52-2.28.79-1.52-.74-3-1.52-4.53-2.3l.68-.3c.08 0 0-.15 0-.12-.29.1-.56.19-.85.32l-3.65-1.99c-.07 0-.12.07-.07.12 1.15.64 2.28 1.27 3.43 1.89-2.82 1-9.92 3.57-17.18 6.15l-2.26-1.3 1.11-.86a31.67 31.67 0 0 0 4.14-4.07c6.65-2.14 14.5-4.7 14.93-4.53.24.09 8 4.26 12.66 6.82.9 4.87 2 6 2.16 6-.42 0-.86.08-1.27.1a.1.1 0 0 0-.1.07c-.8 4.79-1.87 6.11 1.08 5.71.09.3.16.59.25.89-17.78 6.81-70.33 26.8-70.85 26.73S37.12 148.62 36.21 148c-.71-.51-.56-.49.22-.78s24.18-7.11 35-11c.08 0 0-.14 0-.12-11.93 4.19-24.23 7.21-36.22 11.27-.12 0-.12.17 0 .25 6.1 4.31 29.21 20.68 29.75 20.75s63.27-23.86 71-27c1.75 6.37.47 9.69.69 10.27.35.88 1.89.39 2.43.14a6.72 6.72 0 0 1 1.45-.71c1.48-.35 1.72.89 3.87 1.15 2.42.24 5.18-1.69 3.79-2.47-1.19-.69-4.84 1.21-3.94-3.75.37-2.11.76-4.21 1.13-6.3l2.69-.22c.29 0 .15-.24-.47-2.26 1.07-.72 3.72-1.37 3.17-1.73-1.59-.64-3.21-1.38-4.83-1.94.15-.52.37-1.43.6-2.63 13.36 6.35 9.11 4.25 37 17.41-4.43 2.05-91.66 41.77-93.3 42.11z"></path><path d="M97.44 44.36a.47.47 0 0 0 .93 0 .47.47 0 1 0-.93 0zm2.4-1.67a.46.46 0 1 0 .93 0 .46.46 0 0 0-.93 0zm2.38-1.07a.47.47 0 0 0 .93 0 .47.47 0 1 0-.93 0zm2.78-.81a.47.47 0 0 0 .93 0 .47.47 0 0 0-.93 0zm3.66-.2a.47.47 0 0 0-.93 0 .47.47 0 1 0 .93 0z"></path></g></g></svg>