<svg width="599" height="469" viewBox="0 0 599 469" fill="none" xmlns="http://www.w3.org/2000/svg">
<path d="M166.23 307.172L204.191 342.447" stroke="#1A1A1A" stroke-width="2.5" stroke-miterlimit="6.8267"/>
<path d="M204.191 307.172L166.23 342.447" stroke="#1A1A1A" stroke-width="2.5" stroke-miterlimit="6.8267"/>
<path d="M166.23 342.449C166.23 342.449 180.973 340.535 191.504 330.644C202.084 320.798 204.191 307.127 204.191 307.127" stroke="#1A1A1A" stroke-width="2.5" stroke-miterlimit="6.8267"/>
<path d="M185.236 349.773C200.053 349.773 212.064 338.597 212.064 324.81C212.064 311.024 200.053 299.847 185.236 299.847C170.419 299.847 158.408 311.024 158.408 324.81C158.408 338.597 170.419 349.773 185.236 349.773Z" stroke="#1A1A1A" stroke-width="2.5" stroke-miterlimit="6.8267"/>
<path d="M166.23 342.449C166.23 342.449 183.129 350.287 197.872 336.569C212.615 322.851 204.191 307.127 204.191 307.127" stroke="#1A1A1A" stroke-width="2.5" stroke-miterlimit="6.8267"/>
<path d="M166.23 342.449C166.23 342.449 168.286 328.731 178.917 318.932C189.548 309.087 204.191 307.127 204.191 307.127" stroke="#1A1A1A" stroke-width="2.5" stroke-miterlimit="6.8267"/>
<path d="M166.228 342.449C166.228 342.449 157.804 326.724 172.547 313.006C187.289 299.288 204.188 307.127 204.188 307.127" stroke="#1A1A1A" stroke-width="2.5" stroke-miterlimit="6.8267"/>
<path d="M159.764 316.971C162.672 318.044 169.943 321.357 179.471 330.222C188.998 339.087 192.559 345.853 193.712 348.559" stroke="#1A1A1A" stroke-width="2.5" stroke-miterlimit="6.8267"/>
<path d="M158.461 326.49C161.369 327.423 166.484 329.896 173.154 336.055C179.723 342.167 182.38 346.927 183.433 349.633" stroke="#1A1A1A" stroke-width="2.5" stroke-miterlimit="6.8267"/>
<path d="M178.672 301.106C179.825 303.813 183.385 310.578 192.913 319.444C202.441 328.309 209.712 331.622 212.62 332.695" stroke="#1A1A1A" stroke-width="2.5" stroke-miterlimit="6.8267"/>
<path d="M187.043 299.895C188.046 302.601 190.704 307.36 197.323 313.566C203.892 319.678 209.007 322.151 211.915 323.131" stroke="#1A1A1A" stroke-width="2.5" stroke-miterlimit="6.8267"/>
<path d="M55.9023 88.2184L317.411 49.2573L335.263 152.889C335.965 157.135 332.906 161.055 328.343 161.754L83.2818 198.243C78.7186 198.896 74.5064 196.05 73.7542 191.804L55.9023 88.2184Z" fill="white" stroke="#1A1A1A" stroke-width="2.5" stroke-miterlimit="6.8267"/>
<path d="M59.0584 57.7966L304.119 21.3086C308.682 20.6553 312.895 23.5016 313.647 27.7476L317.357 49.2579L55.8491 88.219L52.1383 66.7087C51.4864 62.4626 54.5453 58.4965 59.0584 57.7966Z" fill="white" stroke="#1A1A1A" stroke-width="2.5" stroke-miterlimit="6.8267"/>
<path d="M72.247 75.4824C75.0164 75.4824 77.2615 73.3933 77.2615 70.8164C77.2615 68.2394 75.0164 66.1504 72.247 66.1504C69.4775 66.1504 67.2324 68.2394 67.2324 70.8164C67.2324 73.3933 69.4775 75.4824 72.247 75.4824Z" fill="#1A1A1A"/>
<path d="M89.3446 72.915C92.1141 72.915 94.3592 70.826 94.3592 68.249C94.3592 65.672 92.1141 63.583 89.3446 63.583C86.5752 63.583 84.3301 65.672 84.3301 68.249C84.3301 70.826 86.5752 72.915 89.3446 72.915Z" fill="#1A1A1A"/>
<path d="M106.444 70.394C109.214 70.394 111.459 68.305 111.459 65.728C111.459 63.151 109.214 61.062 106.444 61.062C103.675 61.062 101.43 63.151 101.43 65.728C101.43 68.305 103.675 70.394 106.444 70.394Z" fill="#1A1A1A"/>
<path d="M303.16 75.9153L78.2695 109.421L79.0306 113.844L303.921 80.3382L303.16 75.9153Z" fill="white" stroke="#1A1A1A" stroke-width="2.5" stroke-miterlimit="6.8265"/>
<path d="M291.805 82.1352L78.9961 113.841L79.7572 118.264L292.567 86.5582L291.805 82.1352Z" fill="#1A1A1A"/>
<path d="M284.644 97.2616L81.3906 127.544L82.1517 131.967L285.405 101.685L284.644 97.2616Z" fill="white" stroke="#1A1A1A" stroke-width="2.5" stroke-miterlimit="6.8265"/>
<path d="M268.603 104.202L82.1348 131.984L82.8959 136.407L269.364 108.625L268.603 104.202Z" fill="#1A1A1A"/>
<path d="M266.922 118.502L84.5137 145.679L85.2748 150.102L267.683 122.925L266.922 118.502Z" fill="white" stroke="#1A1A1A" stroke-width="2.5" stroke-miterlimit="6.8265"/>
<path d="M232.105 128.252L85.248 150.132L86.0091 154.555L232.867 132.675L232.105 128.252Z" fill="#1A1A1A"/>
<path d="M283.085 134.663L87.6055 163.787L88.3666 168.21L283.846 139.086L283.085 134.663Z" fill="white" stroke="#1A1A1A" stroke-width="2.5" stroke-miterlimit="6.8265"/>
<path d="M279.26 139.807L88.3848 168.245L89.1459 172.668L280.021 144.23L279.26 139.807Z" fill="#1A1A1A"/>
<path d="M76.8125 100.629L90.7528 181.537" stroke="#1A1A1A" stroke-width="2.5" stroke-miterlimit="6.8267"/>
<path d="M288.291 354.637L475.434 365.836L468.965 459.575C468.664 463.822 464.703 467.088 460.14 466.808L289.595 456.589C285.032 456.309 281.522 452.623 281.823 448.377L288.291 354.637Z" fill="white" stroke="#1A1A1A" stroke-width="2.5" stroke-miterlimit="6.8267"/>
<path d="M298.625 325.661L469.17 335.88C473.733 336.16 477.243 339.846 476.942 344.092L475.438 365.836L288.295 354.637L289.799 332.894C290.05 328.601 294.062 325.382 298.625 325.661Z" fill="white" stroke="#1A1A1A" stroke-width="2.5" stroke-miterlimit="6.8267"/>
<path d="M308.35 345.727C311.12 345.727 313.365 343.637 313.365 341.061C313.365 338.484 311.12 336.395 308.35 336.395C305.581 336.395 303.336 338.484 303.336 341.061C303.336 343.637 305.581 345.727 308.35 345.727Z" fill="#1A1A1A"/>
<path d="M325.651 346.704C328.421 346.704 330.666 344.615 330.666 342.038C330.666 339.461 328.421 337.372 325.651 337.372C322.882 337.372 320.637 339.461 320.637 342.038C320.637 344.615 322.882 346.704 325.651 346.704Z" fill="#1A1A1A"/>
<path d="M342.948 347.778C345.718 347.778 347.963 345.689 347.963 343.112C347.963 340.535 345.718 338.446 342.948 338.446C340.179 338.446 337.934 340.535 337.934 343.112C337.934 345.689 340.179 347.778 342.948 347.778Z" fill="#1A1A1A"/>
<path d="M451.566 449.451L300.428 440.446" stroke="#1A1A1A" stroke-width="2.5" stroke-miterlimit="6.8267"/>
<path d="M456.279 381.282L305.141 372.23" stroke="#1A1A1A" stroke-width="2.5" stroke-miterlimit="6.8267" stroke-linecap="round" stroke-linejoin="round"/>
<path d="M454.726 404.005L303.537 394.953" stroke="#1A1A1A" stroke-width="2.5" stroke-miterlimit="6.8267" stroke-linecap="round" stroke-linejoin="round"/>
<path d="M453.171 426.775L301.982 417.676" stroke="#1A1A1A" stroke-width="2.5" stroke-miterlimit="6.8267" stroke-linecap="round" stroke-linejoin="round"/>
<path d="M303.887 403.679C309.453 395.467 316.273 384.455 336.431 385.668C368.624 387.628 361.604 431.815 392.143 433.681C420.124 435.361 423.233 384.735 456.58 378.249" stroke="#1A1A1A" stroke-width="2.5" stroke-miterlimit="6.8267" stroke-linecap="round" stroke-linejoin="round"/>
<path d="M303.086 417.209C334.627 419.075 331.418 370.736 359.148 372.415C386.628 374.048 376.8 405.264 407.188 407.084C423.686 408.064 442.29 397.845 455.879 388.28" stroke="#1A1A1A" stroke-width="2.5" stroke-miterlimit="6.8267" stroke-linecap="round" stroke-linejoin="round"/>
<path d="M336.957 207.828L463.424 200.362L472.45 332.317C472.751 336.563 469.291 340.296 464.678 340.529L354.859 347.015C350.296 347.295 346.284 344.075 346.033 339.782L336.957 207.828Z" fill="white" stroke="#1A1A1A" stroke-width="2.5" stroke-miterlimit="6.8267"/>
<path d="M343.275 177.872L453.094 171.387C457.657 171.107 461.668 174.326 461.919 178.619L463.373 200.362L336.906 207.828L335.452 186.084C335.202 181.838 338.662 178.152 343.275 177.872Z" fill="white" stroke="#1A1A1A" stroke-width="2.5" stroke-miterlimit="6.8267"/>
<path d="M355.011 196.63C357.78 196.63 360.025 194.541 360.025 191.964C360.025 189.387 357.78 187.298 355.011 187.298C352.241 187.298 349.996 189.387 349.996 191.964C349.996 194.541 352.241 196.63 355.011 196.63Z" fill="#1A1A1A"/>
<path d="M372.311 195.604C375.081 195.604 377.326 193.515 377.326 190.938C377.326 188.361 375.081 186.272 372.311 186.272C369.542 186.272 367.297 188.361 367.297 190.938C367.297 193.515 369.542 195.604 372.311 195.604Z" fill="#1A1A1A"/>
<path d="M389.559 194.577C392.329 194.577 394.574 192.488 394.574 189.911C394.574 187.334 392.329 185.245 389.559 185.245C386.79 185.245 384.545 187.334 384.545 189.911C384.545 192.488 386.79 194.577 389.559 194.577Z" fill="#1A1A1A"/>
<path d="M371.522 281.768L364.266 282.197L367.495 329.462L374.752 329.033L371.522 281.768Z" fill="#1A1A1A"/>
<path d="M380.583 257.157L373.326 257.586L378.194 328.833L385.451 328.404L380.583 257.157Z" fill="#1A1A1A"/>
<path d="M389.395 228.303L382.139 228.732L388.935 328.198L396.191 327.769L389.395 228.303Z" fill="#1A1A1A"/>
<path d="M401.237 244.013L393.98 244.442L399.66 327.564L406.916 327.135L401.237 244.013Z" fill="#1A1A1A"/>
<path d="M413.245 261.722L405.988 262.151L410.414 326.926L417.671 326.496L413.245 261.722Z" fill="#1A1A1A"/>
<path d="M422.913 246.017L415.656 246.446L421.113 326.308L428.369 325.878L422.913 246.017Z" fill="#1A1A1A"/>
<path d="M432.704 231.05L425.447 231.479L431.884 325.684L439.14 325.255L432.704 231.05Z" fill="#1A1A1A"/>
<path d="M444.643 248.202L437.387 248.631L442.608 325.047L449.864 324.617L444.643 248.202Z" fill="#1A1A1A"/>
<path d="M453.796 324.338L363.334 329.704" stroke="#1A1A1A" stroke-width="2.5" stroke-miterlimit="6.8267"/>
<path d="M212.615 116.635L399.758 127.834L389.88 270.8C389.579 275.046 385.617 278.312 381.054 278.032L210.509 267.814C205.946 267.534 202.436 263.847 202.737 259.601L212.615 116.635Z" fill="white" stroke="#1A1A1A" stroke-width="2.5" stroke-miterlimit="6.8267"/>
<path d="M222.945 87.6593L393.49 97.8779C398.053 98.1578 401.563 101.844 401.262 106.09L399.758 127.834L212.615 116.635L214.12 94.8916C214.42 90.6456 218.382 87.3794 222.945 87.6593Z" fill="white" stroke="#1A1A1A" stroke-width="2.5" stroke-miterlimit="6.8267"/>
<path d="M232.675 107.722C235.444 107.722 237.689 105.633 237.689 103.056C237.689 100.479 235.444 98.3896 232.675 98.3896C229.905 98.3896 227.66 100.479 227.66 103.056C227.66 105.633 229.905 107.722 232.675 107.722Z" fill="#1A1A1A"/>
<path d="M249.972 108.75C252.741 108.75 254.986 106.661 254.986 104.084C254.986 101.507 252.741 99.418 249.972 99.418C247.202 99.418 244.957 101.507 244.957 104.084C244.957 106.661 247.202 108.75 249.972 108.75Z" fill="#1A1A1A"/>
<path d="M267.272 109.776C270.042 109.776 272.287 107.687 272.287 105.11C272.287 102.533 270.042 100.444 267.272 100.444C264.503 100.444 262.258 102.533 262.258 105.11C262.258 107.687 264.503 109.776 267.272 109.776Z" fill="#1A1A1A"/>
<path d="M295.004 199.64L321.13 240.98" stroke="#1A1A1A" stroke-width="2.5" stroke-miterlimit="6.8267" stroke-linecap="round" stroke-linejoin="round"/>
<path d="M346.605 199.22L295.055 199.639L338.581 173.976L338.381 173.65C326.446 156.432 303.58 147.707 281.265 153.446C253.836 160.538 237.789 186.948 245.411 212.471C253.033 237.994 281.416 252.925 308.845 245.833C331.812 239.907 346.805 220.357 346.605 199.22Z" stroke="#1A1A1A" stroke-width="2.5" stroke-miterlimit="6.8267" stroke-linecap="round" stroke-linejoin="round"/>
<path d="M302.125 152.094L295.004 199.64" stroke="#1A1A1A" stroke-width="2.5" stroke-miterlimit="6.8267" stroke-linecap="round" stroke-linejoin="round"/>
<path d="M363.349 167.165L319.873 192.828L371.422 192.408C371.372 188.302 370.771 184.149 369.517 179.996C368.113 175.33 366.007 170.991 363.399 167.118L363.349 167.165Z" fill="#1A1A1A" stroke="#1A1A1A" stroke-width="2.5" stroke-miterlimit="6.8267" stroke-linecap="round" stroke-linejoin="round"/>
<path d="M257.595 166.652C245.61 178.457 240.395 195.628 245.41 212.425L295.104 199.594L257.595 166.652Z" fill="#1A1A1A" stroke="#1A1A1A" stroke-width="2.5" stroke-miterlimit="6.8267" stroke-linecap="round" stroke-linejoin="round"/>
<path d="M40.668 215.434L167.135 207.968L176.161 339.923C176.462 344.169 173.002 347.901 168.388 348.135L58.5699 354.621C54.0066 354.901 49.9949 351.681 49.7442 347.388L40.668 215.434Z" fill="white" stroke="#1A1A1A" stroke-width="2.5" stroke-miterlimit="6.8267"/>
<path d="M46.9858 185.432L156.804 178.946C161.368 178.666 165.379 181.886 165.63 186.178L167.084 207.922L40.6174 215.388L39.1632 193.644C38.9125 189.398 42.3724 185.712 46.9858 185.432Z" fill="white" stroke="#1A1A1A" stroke-width="2.5" stroke-miterlimit="6.8267"/>
<path d="M58.7216 204.189C61.491 204.189 63.7361 202.1 63.7361 199.523C63.7361 196.946 61.491 194.857 58.7216 194.857C55.9521 194.857 53.707 196.946 53.707 199.523C53.707 202.1 55.9521 204.189 58.7216 204.189Z" fill="#1A1A1A"/>
<path d="M76.0224 203.164C78.7918 203.164 81.0369 201.074 81.0369 198.498C81.0369 195.921 78.7918 193.832 76.0224 193.832C73.2529 193.832 71.0078 195.921 71.0078 198.498C71.0078 201.074 73.2529 203.164 76.0224 203.164Z" fill="#1A1A1A"/>
<path d="M93.3231 202.183C96.0926 202.183 98.3377 200.094 98.3377 197.517C98.3377 194.94 96.0926 192.851 93.3231 192.851C90.5537 192.851 88.3086 194.94 88.3086 197.517C88.3086 200.094 90.5537 202.183 93.3231 202.183Z" fill="#1A1A1A"/>
<path d="M65.3467 269.658L62.4941 269.827L64.0309 292.319L66.8834 292.15L65.3467 269.658Z" fill="#1A1A1A" stroke="#1A1A1A" stroke-width="2.5" stroke-miterlimit="6.8268"/>
<path d="M63.8408 247.163L60.9883 247.332L62.525 269.824L65.3776 269.655L63.8408 247.163Z" fill="white" stroke="#1A1A1A" stroke-width="2.5" stroke-miterlimit="6.8268"/>
<path d="M72.417 280.667L69.5645 280.836L71.1012 303.328L73.9537 303.159L72.417 280.667Z" fill="#1A1A1A" stroke="#1A1A1A" stroke-width="2.5" stroke-miterlimit="6.8268"/>
<path d="M70.8623 258.223L68.0098 258.392L69.5465 280.883L72.399 280.715L70.8623 258.223Z" fill="white" stroke="#1A1A1A" stroke-width="2.5" stroke-miterlimit="6.8268"/>
<path d="M79.3955 290.742L76.543 290.911L78.0797 313.402L80.9323 313.234L79.3955 290.742Z" fill="#1A1A1A" stroke="#1A1A1A" stroke-width="2.5" stroke-miterlimit="6.8268"/>
<path d="M77.8369 268.253L74.9844 268.421L76.5211 290.913L79.3737 290.744L77.8369 268.253Z" fill="white" stroke="#1A1A1A" stroke-width="2.5" stroke-miterlimit="6.8268"/>
<path d="M84.6025 275.534L81.75 275.703L83.2867 298.195L86.1393 298.026L84.6025 275.534Z" fill="#1A1A1A" stroke="#1A1A1A" stroke-width="2.5" stroke-miterlimit="6.8268"/>
<path d="M83.048 253.09L80.1953 253.259L81.732 275.75L84.5847 275.582L83.048 253.09Z" fill="white" stroke="#1A1A1A" stroke-width="2.5" stroke-miterlimit="6.8268"/>
<path d="M91.7744 288.646L88.9219 288.815L90.4586 311.307L93.3112 311.138L91.7744 288.646Z" fill="#1A1A1A" stroke="#1A1A1A" stroke-width="2.5" stroke-miterlimit="6.8268"/>
<path d="M90.2686 266.201L87.416 266.37L88.9528 288.861L91.8053 288.693L90.2686 266.201Z" fill="white" stroke="#1A1A1A" stroke-width="2.5" stroke-miterlimit="6.8268"/>
<path d="M98.6416 297.047L95.7891 297.216L97.3258 319.708L100.178 319.539L98.6416 297.047Z" fill="#1A1A1A" stroke="#1A1A1A" stroke-width="2.5" stroke-miterlimit="6.8268"/>
<path d="M97.087 274.555L94.2344 274.724L95.7711 297.215L98.6238 297.047L97.087 274.555Z" fill="white" stroke="#1A1A1A" stroke-width="2.5" stroke-miterlimit="6.8268"/>
<path d="M105.515 305.068L102.662 305.237L104.199 327.729L107.051 327.56L105.515 305.068Z" fill="#1A1A1A" stroke="#1A1A1A" stroke-width="2.5" stroke-miterlimit="6.8268"/>
<path d="M103.96 282.576L101.107 282.745L102.644 305.237L105.497 305.068L103.96 282.576Z" fill="white" stroke="#1A1A1A" stroke-width="2.5" stroke-miterlimit="6.8268"/>
<path d="M112.081 309.55L109.229 309.719L110.765 332.211L113.618 332.042L112.081 309.55Z" fill="#1A1A1A" stroke="#1A1A1A" stroke-width="2.5" stroke-miterlimit="6.8268"/>
<path d="M110.526 287.059L107.674 287.228L109.211 309.719L112.063 309.55L110.526 287.059Z" fill="white" stroke="#1A1A1A" stroke-width="2.5" stroke-miterlimit="6.8268"/>
<path d="M117.497 297.369L114.645 297.538L116.181 320.03L119.034 319.861L117.497 297.369Z" fill="#1A1A1A" stroke="#1A1A1A" stroke-width="2.5" stroke-miterlimit="6.8268"/>
<path d="M115.942 274.878L113.09 275.046L114.627 297.538L117.479 297.369L115.942 274.878Z" fill="white" stroke="#1A1A1A" stroke-width="2.5" stroke-miterlimit="6.8268"/>
<path d="M124.165 302.505L121.312 302.674L122.849 325.166L125.702 324.997L124.165 302.505Z" fill="#1A1A1A" stroke="#1A1A1A" stroke-width="2.5" stroke-miterlimit="6.8268"/>
<path d="M122.61 280.013L119.758 280.182L121.295 302.674L124.147 302.505L122.61 280.013Z" fill="white" stroke="#1A1A1A" stroke-width="2.5" stroke-miterlimit="6.8268"/>
<path d="M129.28 285.938L126.428 286.106L127.964 308.598L130.817 308.429L129.28 285.938Z" fill="#1A1A1A" stroke="#1A1A1A" stroke-width="2.5" stroke-miterlimit="6.8268"/>
<path d="M127.726 263.448L124.873 263.617L126.41 286.109L129.262 285.94L127.726 263.448Z" fill="white" stroke="#1A1A1A" stroke-width="2.5" stroke-miterlimit="6.8268"/>
<path d="M134.997 277.446L132.145 277.615L133.681 300.106L136.534 299.938L134.997 277.446Z" fill="#1A1A1A" stroke="#1A1A1A" stroke-width="2.5" stroke-miterlimit="6.8268"/>
<path d="M133.443 255.002L130.59 255.171L132.127 277.663L134.979 277.494L133.443 255.002Z" fill="white" stroke="#1A1A1A" stroke-width="2.5" stroke-miterlimit="6.8268"/>
<path d="M140.872 271.893L138.02 272.062L139.556 294.554L142.409 294.385L140.872 271.893Z" fill="#1A1A1A" stroke="#1A1A1A" stroke-width="2.5" stroke-miterlimit="6.8268"/>
<path d="M139.366 249.399L136.514 249.567L138.05 272.059L140.903 271.89L139.366 249.399Z" fill="white" stroke="#1A1A1A" stroke-width="2.5" stroke-miterlimit="6.8268"/>
<path d="M147.634 278.566L144.781 278.735L146.318 301.227L149.171 301.058L147.634 278.566Z" fill="#1A1A1A" stroke="#1A1A1A" stroke-width="2.5" stroke-miterlimit="6.8268"/>
<path d="M146.079 256.074L143.227 256.243L144.763 278.734L147.616 278.566L146.079 256.074Z" fill="white" stroke="#1A1A1A" stroke-width="2.5" stroke-miterlimit="6.8268"/>
<path d="M152.45 257.477L149.598 257.646L151.134 280.138L153.987 279.969L152.45 257.477Z" fill="#1A1A1A" stroke="#1A1A1A" stroke-width="2.5" stroke-miterlimit="6.8268"/>
<path d="M150.896 235.033L148.043 235.202L149.58 257.694L152.432 257.525L150.896 235.033Z" fill="white" stroke="#1A1A1A" stroke-width="2.5" stroke-miterlimit="6.8268"/>
<path d="M304.799 1.32861L308.159 13.6468L317.637 4.54811L313.876 16.6797L326.964 13.2269L317.185 22.0456L330.374 25.1252L317.185 28.2047L326.964 37.0235L313.876 33.524L317.637 45.7489L308.159 36.6502L304.799 48.9218L301.49 36.6502L292.012 45.7489L295.773 33.524L282.685 37.0235L292.464 28.2047L279.275 25.1252L292.464 22.0456L282.685 13.2269L295.773 16.6797L292.012 4.54811L301.49 13.6468L304.799 1.32861Z" fill="white" stroke="#1A1A1A" stroke-width="2.5" stroke-miterlimit="6.8267" stroke-linejoin="round"/>
<path d="M276.294 300.106L277.798 303.839L281.81 305.285L277.798 306.732L276.294 310.464L274.74 306.732L270.678 305.285L274.74 303.839L276.294 300.106Z" fill="#1A1A1A"/>
<path d="M494.01 216.177L495.615 219.91L499.576 221.403L495.615 222.803L494.01 226.536L492.456 222.803L488.494 221.403L492.456 219.91L494.01 216.177Z" fill="#1A1A1A"/>
<path d="M6.31424 1.32861L7.8186 5.06141L11.8803 6.50786L7.8186 7.95431L6.31424 11.6871L4.75968 7.95431L0.748047 6.50786L4.75968 5.06141L6.31424 1.32861Z" fill="#1A1A1A"/>
</svg>
